<?xml version="1.0" encoding="UTF-8" standalone="no"?>
<!-- Created with Inkscape (http://www.inkscape.org/) -->

<svg
   xmlns:dc="http://purl.org/dc/elements/1.1/"
   xmlns:cc="http://creativecommons.org/ns#"
   xmlns:rdf="http://www.w3.org/1999/02/22-rdf-syntax-ns#"
   xmlns:svg="http://www.w3.org/2000/svg"
   xmlns="http://www.w3.org/2000/svg"
   xmlns:sodipodi="http://sodipodi.sourceforge.net/DTD/sodipodi-0.dtd"
   xmlns:inkscape="http://www.inkscape.org/namespaces/inkscape"
   width="101.54242mm"
   height="64.234367mm"
   viewBox="0 0 101.54242 64.234367"
   version="1.1"
   id="svg8"
   inkscape:version="0.92.2 5c3e80d, 2017-08-06"
   sodipodi:docname="rg_col_female.svg">
  <defs
     id="defs2" />
  <sodipodi:namedview
     id="base"
     pagecolor="#ffffff"
     bordercolor="#666666"
     borderopacity="1.0"
     inkscape:pageopacity="0.0"
     inkscape:pageshadow="2"
     inkscape:zoom="0.35"
     inkscape:cx="377.81636"
     inkscape:cy="-130.04079"
     inkscape:document-units="mm"
     inkscape:current-layer="layer1"
     showgrid="false"
     fit-margin-top="0"
     fit-margin-left="0"
     fit-margin-right="0"
     fit-margin-bottom="0"
     inkscape:window-width="1280"
     inkscape:window-height="755"
     inkscape:window-x="0"
     inkscape:window-y="0"
     inkscape:window-maximized="0" />
  <metadata
     id="metadata5">
    <rdf:RDF>
      <cc:Work
         rdf:about="">
        <dc:format>image/svg+xml</dc:format>
        <dc:type
           rdf:resource="http://purl.org/dc/dcmitype/StillImage" />
        <dc:title></dc:title>
      </cc:Work>
    </rdf:RDF>
  </metadata>
  <g
     inkscape:label="Layer 1"
     inkscape:groupmode="layer"
     id="layer1"
     transform="translate(-58.597101,-133.3471)">
    <g
       id="g1692">
      <path
         style="color:#000000;font-style:normal;font-variant:normal;font-weight:normal;font-stretch:normal;font-size:medium;line-height:normal;font-family:sans-serif;font-variant-ligatures:normal;font-variant-position:normal;font-variant-caps:normal;font-variant-numeric:normal;font-variant-alternates:normal;font-feature-settings:normal;text-indent:0;text-align:start;text-decoration:none;text-decoration-line:none;text-decoration-style:solid;text-decoration-color:#000000;letter-spacing:normal;word-spacing:normal;text-transform:none;writing-mode:lr-tb;direction:ltr;text-orientation:mixed;dominant-baseline:auto;baseline-shift:baseline;text-anchor:start;white-space:normal;shape-padding:0;clip-rule:nonzero;display:inline;overflow:visible;visibility:visible;opacity:1;isolation:auto;mix-blend-mode:normal;color-interpolation:sRGB;color-interpolation-filters:linearRGB;solid-color:#000000;solid-opacity:1;vector-effect:none;fill:#7d8394;fill-opacity:1;fill-rule:nonzero;stroke:none;stroke-width:4.2329998;stroke-linecap:butt;stroke-linejoin:miter;stroke-miterlimit:4;stroke-dasharray:none;stroke-dashoffset:0;stroke-opacity:1;color-rendering:auto;image-rendering:auto;shape-rendering:auto;text-rendering:auto;enable-background:accumulate"
         d="m 76.450617,133.3471 c -9.853662,0 -17.853516,7.99985 -17.853516,17.85351 v 28.52735 c 0,9.85366 7.999854,17.85351 17.853516,17.85351 h 28.527343 c 9.85366,0 17.85352,-7.99985 17.85351,-17.85351 v -28.52735 c 0,-9.85366 -7.99985,-17.85351 -17.85351,-17.85351 z m 0,4.23437 h 28.527343 c 7.5818,0 13.61914,6.03735 13.61914,13.61914 v 28.52735 c 0,7.5818 -6.03734,13.61914 -13.61914,13.61914 H 76.450617 c -7.581799,0 -13.619141,-6.03734 -13.619141,-13.61914 v -28.52735 c 0,-7.58179 6.037342,-13.61914 13.619141,-13.61914 z"
         id="rect895"
         inkscape:connector-curvature="0" />
      <path
         style="color:#000000;font-style:normal;font-variant:normal;font-weight:normal;font-stretch:normal;font-size:medium;line-height:normal;font-family:sans-serif;font-variant-ligatures:normal;font-variant-position:normal;font-variant-caps:normal;font-variant-numeric:normal;font-variant-alternates:normal;font-feature-settings:normal;text-indent:0;text-align:start;text-decoration:none;text-decoration-line:none;text-decoration-style:solid;text-decoration-color:#000000;letter-spacing:normal;word-spacing:normal;text-transform:none;writing-mode:lr-tb;direction:ltr;text-orientation:mixed;dominant-baseline:auto;baseline-shift:baseline;text-anchor:start;white-space:normal;shape-padding:0;clip-rule:nonzero;display:inline;overflow:visible;visibility:visible;opacity:1;isolation:auto;mix-blend-mode:normal;color-interpolation:sRGB;color-interpolation-filters:linearRGB;solid-color:#000000;solid-opacity:1;vector-effect:none;fill:#9a3c43;fill-opacity:1;fill-rule:evenodd;stroke:none;stroke-width:10.25694752;stroke-linecap:round;stroke-linejoin:miter;stroke-miterlimit:4;stroke-dasharray:none;stroke-dashoffset:0;stroke-opacity:1;color-rendering:auto;image-rendering:auto;shape-rendering:auto;text-rendering:auto;enable-background:accumulate"
         d="m 89.257261,143.17132 c -5.728294,0.31337 -11.455571,1.47058 -15.539066,5.79297 -4.083553,4.32245 -4.995397,10.10272 -5.142578,15.95898 -0.147182,5.85626 0.600415,12.15777 1.302734,18.30078 a 5.1289866,5.1289866 0 1 0 10.191406,-1.16406 c -0.702319,-6.14302 -1.359693,-12.12573 -1.240234,-16.87891 0.119459,-4.75317 1.147819,-7.90598 2.34375,-9.17187 1.195988,-1.26596 4.085213,-2.34628 8.644528,-2.5957 4.55932,-0.24943 10.367899,0.26009 16.347659,0.8164 a 5.1289866,5.1289866 0 1 0 0.94922,-10.21289 c -5.97976,-0.55631 -12.129129,-1.15908 -17.857419,-0.8457 z"
         id="path924"
         inkscape:connector-curvature="0" />
      <path
         style="color:#000000;font-style:normal;font-variant:normal;font-weight:normal;font-stretch:normal;font-size:medium;line-height:normal;font-family:sans-serif;font-variant-ligatures:normal;font-variant-position:normal;font-variant-caps:normal;font-variant-numeric:normal;font-variant-alternates:normal;font-feature-settings:normal;text-indent:0;text-align:start;text-decoration:none;text-decoration-line:none;text-decoration-style:solid;text-decoration-color:#000000;letter-spacing:normal;word-spacing:normal;text-transform:none;writing-mode:lr-tb;direction:ltr;text-orientation:mixed;dominant-baseline:auto;baseline-shift:baseline;text-anchor:start;white-space:normal;shape-padding:0;clip-rule:nonzero;display:inline;overflow:visible;visibility:visible;opacity:1;isolation:auto;mix-blend-mode:normal;color-interpolation:sRGB;color-interpolation-filters:linearRGB;solid-color:#000000;solid-opacity:1;vector-effect:none;fill:#3476c7;fill-opacity:1;fill-rule:evenodd;stroke:none;stroke-width:8.94210911;stroke-linecap:butt;stroke-linejoin:miter;stroke-miterlimit:4;stroke-dasharray:none;stroke-dashoffset:0;stroke-opacity:1;color-rendering:auto;image-rendering:auto;shape-rendering:auto;text-rendering:auto;enable-background:accumulate"
         d="m 99.470151,156.45647 c -3.3467,-0.38621 -6.66192,0.1039 -9.61133,1.26758 -2.949415,1.16368 -5.792131,2.97716 -7.166017,6.3711 -1.367879,3.3791 -0.370568,7.01677 1.650391,9.56054 2.020958,2.54378 5.141856,4.30976 8.822266,4.73438 3.68786,0.42548 7.270709,-0.42852 10.431639,-1.83008 3.16093,-1.40156 6.10902,-3.08903 7.60352,-6.78125 0.75083,-1.85497 0.68186,-4.01896 0.0312,-5.70703 -0.65062,-1.68808 -1.73246,-2.96641 -2.94141,-3.99024 -2.41791,-2.04765 -5.46827,-3.23817 -8.820309,-3.625 z m -1.02539,8.88477 c 1.634509,0.18862 3.176429,0.9038 3.921869,1.48242 -0.48844,0.43062 -1.2369,1.04921 -2.394529,1.5625 -1.92056,0.85158 -4.36446,1.28455 -5.78125,1.1211 -1.42424,-0.16432 -2.38964,-0.84002 -2.8457,-1.41407 -0.45607,-0.57405 -0.32799,-0.72976 -0.36328,-0.64258 -0.0413,0.10202 0.64675,-0.81382 2.1582,-1.41015 1.51145,-0.59634 3.58997,-0.8971 5.30469,-0.69922 z"
         id="path932"
         inkscape:connector-curvature="0" />
      <path
         style="color:#000000;font-style:normal;font-variant:normal;font-weight:normal;font-stretch:normal;font-size:medium;line-height:normal;font-family:sans-serif;font-variant-ligatures:normal;font-variant-position:normal;font-variant-caps:normal;font-variant-numeric:normal;font-variant-alternates:normal;font-feature-settings:normal;text-indent:0;text-align:start;text-decoration:none;text-decoration-line:none;text-decoration-style:solid;text-decoration-color:#000000;letter-spacing:normal;word-spacing:normal;text-transform:none;writing-mode:lr-tb;direction:ltr;text-orientation:mixed;dominant-baseline:auto;baseline-shift:baseline;text-anchor:start;white-space:normal;shape-padding:0;clip-rule:nonzero;display:inline;overflow:visible;visibility:visible;opacity:1;isolation:auto;mix-blend-mode:normal;color-interpolation:sRGB;color-interpolation-filters:linearRGB;solid-color:#000000;solid-opacity:1;vector-effect:none;fill:#3476c7;fill-opacity:1;fill-rule:evenodd;stroke:none;stroke-width:7.02543354;stroke-linecap:round;stroke-linejoin:miter;stroke-miterlimit:4;stroke-dasharray:none;stroke-dashoffset:0;stroke-opacity:1;color-rendering:auto;image-rendering:auto;shape-rendering:auto;text-rendering:auto;enable-background:accumulate"
         d="m 108.40179,156.67132 a 3.513068,3.513068 0 0 0 -3.40039,3.94531 c 0.47131,4.29454 0.9147,8.4823 0.83398,11.82813 -0.0807,3.34582 -0.79442,5.61974 -1.60156,6.50976 -0.80718,0.89006 -2.67787,1.61219 -5.712889,1.78516 -3.03502,0.17296 -6.92654,-0.1814 -10.93946,-0.57032 a 3.513068,3.513068 0 1 0 -0.675776,6.99219 c 4.012916,0.38892 8.146826,0.81228 12.015626,0.5918 3.868799,-0.22048 7.779839,-1.06337 10.515619,-4.08008 2.73582,-3.01675 3.32366,-6.98744 3.42188,-11.05859 0.0982,-4.07116 -0.40174,-8.47109 -0.87305,-12.76563 a 3.513068,3.513068 0 0 0 -3.58398,-3.17773 z"
         id="path3204"
         inkscape:connector-curvature="0" />
      <g
         style="stroke:#9a3c43;stroke-opacity:1"
         transform="translate(0.56679635,3.4991601)"
         id="g1645">
        <circle
           style="opacity:1;fill:none;fill-opacity:1;stroke:#9a3c43;stroke-width:5;stroke-linecap:round;stroke-miterlimit:4;stroke-dasharray:none;stroke-dashoffset:0;stroke-opacity:1"
           id="path1080"
           cx="143.65457"
           cy="152.80208"
           r="13.418155" />
        <path
           style="opacity:1;fill:none;fill-rule:evenodd;stroke:#9a3c43;stroke-width:5;stroke-linecap:round;stroke-linejoin:miter;stroke-miterlimit:4;stroke-dasharray:none;stroke-opacity:1"
           d="m 143.65456,166.57693 v 17.93379"
           id="path1086"
           inkscape:connector-curvature="0" />
        <path
           inkscape:connector-curvature="0"
           id="path1632"
           d="M 151.95582,176.46335 H 135.35331"
           style="opacity:1;fill:none;fill-rule:evenodd;stroke:#9a3c43;stroke-width:5;stroke-linecap:round;stroke-linejoin:miter;stroke-miterlimit:4;stroke-dasharray:none;stroke-opacity:1" />
      </g>
    </g>
  </g>
</svg>
