<?xml version="1.0" encoding="UTF-8" standalone="no"?>
<svg
   xmlns:dc="http://purl.org/dc/elements/1.1/"
   xmlns:cc="http://creativecommons.org/ns#"
   xmlns:rdf="http://www.w3.org/1999/02/22-rdf-syntax-ns#"
   xmlns:svg="http://www.w3.org/2000/svg"
   xmlns="http://www.w3.org/2000/svg"
   id="svg8"
   version="1.1"
   viewBox="0 0 64.23333 64.23333"
   height="64.23333mm"
   width="64.23333mm">
  <defs
     id="defs2" />
  <metadata
     id="metadata5">
    <rdf:RDF>
      <cc:Work
         rdf:about="">
        <dc:format>image/svg+xml</dc:format>
        <dc:type
           rdf:resource="http://purl.org/dc/dcmitype/StillImage" />
        <dc:title></dc:title>
      </cc:Work>
    </rdf:RDF>
  </metadata>
  <g
     transform="translate(-71.031779,-30.85002)"
     id="layer1">
    <path
       id="rect895"
       d="m 88.884766,30.849609 c -9.853662,0 -17.853516,7.999855 -17.853516,17.853516 v 28.527344 c 0,9.853661 7.999854,17.853515 17.853516,17.853515 h 28.527344 c 9.85366,0 17.85352,-7.999853 17.85351,-17.853515 V 48.703125 c 0,-9.853662 -7.99985,-17.853516 -17.85351,-17.853516 z m 0,4.234375 h 28.527344 c 7.5818,0 13.61914,6.037343 13.61914,13.619141 v 28.527344 c 0,7.581798 -6.03734,13.61914 -13.61914,13.61914 H 88.884766 c -7.581799,0 -13.619141,-6.037341 -13.619141,-13.61914 V 48.703125 c 0,-7.581799 6.037342,-13.619141 13.619141,-13.619141 z"
       style="color:#000000;font-style:normal;font-variant:normal;font-weight:normal;font-stretch:normal;font-size:medium;line-height:normal;font-family:sans-serif;font-variant-ligatures:normal;font-variant-position:normal;font-variant-caps:normal;font-variant-numeric:normal;font-variant-alternates:normal;font-feature-settings:normal;text-indent:0;text-align:start;text-decoration:none;text-decoration-line:none;text-decoration-style:solid;text-decoration-color:#000000;letter-spacing:normal;word-spacing:normal;text-transform:none;writing-mode:lr-tb;direction:ltr;text-orientation:mixed;dominant-baseline:auto;baseline-shift:baseline;text-anchor:start;white-space:normal;shape-padding:0;clip-rule:nonzero;display:inline;overflow:visible;visibility:visible;opacity:1;isolation:auto;mix-blend-mode:normal;color-interpolation:sRGB;color-interpolation-filters:linearRGB;solid-color:#000000;solid-opacity:1;vector-effect:none;fill:#7d8394;fill-opacity:1;fill-rule:nonzero;stroke:none;stroke-width:4.2329998;stroke-linecap:butt;stroke-linejoin:miter;stroke-miterlimit:4;stroke-dasharray:none;stroke-dashoffset:0;stroke-opacity:1;color-rendering:auto;image-rendering:auto;shape-rendering:auto;text-rendering:auto;enable-background:accumulate" />
    <path
       id="path924"
       d="m 101.69141,40.673828 c -5.728294,0.313373 -11.455571,1.470582 -15.539066,5.792969 -4.083553,4.322449 -4.995397,10.102725 -5.142578,15.958984 -0.147182,5.85626 0.600415,12.157765 1.302734,18.300781 A 5.1289866,5.1289866 0 1 0 92.503906,79.5625 c -0.702319,-6.143017 -1.359693,-12.125732 -1.240234,-16.878906 0.119459,-4.753174 1.147819,-7.90598 2.34375,-9.171875 1.195988,-1.265956 4.085213,-2.34628 8.644528,-2.595703 4.55932,-0.249423 10.3679,0.260095 16.34766,0.816406 a 5.1289866,5.1289866 0 1 0 0.94922,-10.212891 C 113.56907,40.96322 107.4197,40.360455 101.69141,40.673828 Z"
       style="color:#000000;font-style:normal;font-variant:normal;font-weight:normal;font-stretch:normal;font-size:medium;line-height:normal;font-family:sans-serif;font-variant-ligatures:normal;font-variant-position:normal;font-variant-caps:normal;font-variant-numeric:normal;font-variant-alternates:normal;font-feature-settings:normal;text-indent:0;text-align:start;text-decoration:none;text-decoration-line:none;text-decoration-style:solid;text-decoration-color:#000000;letter-spacing:normal;word-spacing:normal;text-transform:none;writing-mode:lr-tb;direction:ltr;text-orientation:mixed;dominant-baseline:auto;baseline-shift:baseline;text-anchor:start;white-space:normal;shape-padding:0;clip-rule:nonzero;display:inline;overflow:visible;visibility:visible;opacity:1;isolation:auto;mix-blend-mode:normal;color-interpolation:sRGB;color-interpolation-filters:linearRGB;solid-color:#000000;solid-opacity:1;vector-effect:none;fill:#9a3c43;fill-opacity:1;fill-rule:evenodd;stroke:none;stroke-width:10.25694752;stroke-linecap:round;stroke-linejoin:miter;stroke-miterlimit:4;stroke-dasharray:none;stroke-dashoffset:0;stroke-opacity:1;color-rendering:auto;image-rendering:auto;shape-rendering:auto;text-rendering:auto;enable-background:accumulate" />
    <path
       id="path932"
       d="m 111.9043,53.958984 c -3.3467,-0.38621 -6.66192,0.1039 -9.61133,1.267578 -2.949415,1.163679 -5.792131,2.977159 -7.166017,6.371094 -1.367879,3.379106 -0.370568,7.016772 1.650391,9.560547 2.020958,2.543775 5.141856,4.309755 8.822266,4.734375 3.68786,0.425479 7.27071,-0.428515 10.43164,-1.830078 3.16093,-1.401563 6.10902,-3.089026 7.60352,-6.78125 0.75083,-1.854965 0.68186,-4.018958 0.0312,-5.707031 -0.65062,-1.688074 -1.73246,-2.966406 -2.94141,-3.990235 -2.41791,-2.047657 -5.46827,-3.238171 -8.82031,-3.625 z m -1.02539,8.884766 c 1.63451,0.188624 3.17643,0.903805 3.92187,1.482422 -0.48844,0.430618 -1.2369,1.049205 -2.39453,1.5625 -1.92056,0.851581 -4.36446,1.284553 -5.78125,1.121094 -1.42424,-0.164319 -2.38964,-0.840015 -2.8457,-1.414063 -0.45607,-0.574048 -0.32799,-0.729763 -0.36328,-0.642578 -0.0413,0.102013 0.64675,-0.81382 2.1582,-1.410156 1.51145,-0.596337 3.58997,-0.897098 5.30469,-0.699219 z"
       style="color:#000000;font-style:normal;font-variant:normal;font-weight:normal;font-stretch:normal;font-size:medium;line-height:normal;font-family:sans-serif;font-variant-ligatures:normal;font-variant-position:normal;font-variant-caps:normal;font-variant-numeric:normal;font-variant-alternates:normal;font-feature-settings:normal;text-indent:0;text-align:start;text-decoration:none;text-decoration-line:none;text-decoration-style:solid;text-decoration-color:#000000;letter-spacing:normal;word-spacing:normal;text-transform:none;writing-mode:lr-tb;direction:ltr;text-orientation:mixed;dominant-baseline:auto;baseline-shift:baseline;text-anchor:start;white-space:normal;shape-padding:0;clip-rule:nonzero;display:inline;overflow:visible;visibility:visible;opacity:1;isolation:auto;mix-blend-mode:normal;color-interpolation:sRGB;color-interpolation-filters:linearRGB;solid-color:#000000;solid-opacity:1;vector-effect:none;fill:#3476c7;fill-opacity:1;fill-rule:evenodd;stroke:none;stroke-width:8.94210911;stroke-linecap:butt;stroke-linejoin:miter;stroke-miterlimit:4;stroke-dasharray:none;stroke-dashoffset:0;stroke-opacity:1;color-rendering:auto;image-rendering:auto;shape-rendering:auto;text-rendering:auto;enable-background:accumulate" />
    <path
       id="path3204"
       d="m 120.83594,54.173828 a 3.513068,3.513068 0 0 0 -3.40039,3.945313 c 0.47131,4.294541 0.9147,8.4823 0.83398,11.828125 -0.0807,3.345825 -0.79442,5.619744 -1.60156,6.509765 -0.80718,0.890064 -2.67787,1.612192 -5.71289,1.785157 -3.03502,0.172964 -6.92654,-0.181399 -10.93946,-0.570313 a 3.513068,3.513068 0 1 0 -0.675776,6.992187 c 4.012916,0.388915 8.146826,0.812279 12.015626,0.591797 3.8688,-0.220482 7.77984,-1.06337 10.51562,-4.080078 2.73582,-3.01675 3.32366,-6.987438 3.42188,-11.058593 0.0982,-4.071156 -0.40174,-8.471085 -0.87305,-12.765626 a 3.513068,3.513068 0 0 0 -3.58398,-3.177734 z"
       style="color:#000000;font-style:normal;font-variant:normal;font-weight:normal;font-stretch:normal;font-size:medium;line-height:normal;font-family:sans-serif;font-variant-ligatures:normal;font-variant-position:normal;font-variant-caps:normal;font-variant-numeric:normal;font-variant-alternates:normal;font-feature-settings:normal;text-indent:0;text-align:start;text-decoration:none;text-decoration-line:none;text-decoration-style:solid;text-decoration-color:#000000;letter-spacing:normal;word-spacing:normal;text-transform:none;writing-mode:lr-tb;direction:ltr;text-orientation:mixed;dominant-baseline:auto;baseline-shift:baseline;text-anchor:start;white-space:normal;shape-padding:0;clip-rule:nonzero;display:inline;overflow:visible;visibility:visible;opacity:1;isolation:auto;mix-blend-mode:normal;color-interpolation:sRGB;color-interpolation-filters:linearRGB;solid-color:#000000;solid-opacity:1;vector-effect:none;fill:#3476c7;fill-opacity:1;fill-rule:evenodd;stroke:none;stroke-width:7.02543354;stroke-linecap:round;stroke-linejoin:miter;stroke-miterlimit:4;stroke-dasharray:none;stroke-dashoffset:0;stroke-opacity:1;color-rendering:auto;image-rendering:auto;shape-rendering:auto;text-rendering:auto;enable-background:accumulate" />
  </g>
</svg>
